# xmcd
#
# Track frame offsets:
#	150
#	14339
#	39272
#
# Disc length: 729 seconds
#
# Revision: 0
# Processed by: cddbd v1.5.2PL0 Copyright (c) Steve Scherf et al.
# Submitted via: audiograbber 1.83.01
#
DISCID=1702d703
DTITLE=Teuvo Loman - Helsinki City Boy [CDS)
DYEAR=2005
DGENRE=Dance
TTITLE0=Helsinki City Boy
TTITLE1=Helsinki City Boy (Karaoke Versio)
TTITLE2=Data Track
EXTD=TR.
EXTT0=
EXTT1=
EXTT2=
PLAYORDER=
